<?xml version="1.0" standalone="no"?>
<!DOCTYPE svg PUBLIC "-//W3C//DTD SVG 20010904//EN"
 "http://www.w3.org/TR/2001/REC-SVG-20010904/DTD/svg10.dtd">
<svg version="1.0" xmlns="http://www.w3.org/2000/svg"
 width="200.000000pt" height="200.000000pt" viewBox="0 0 200.000000 200.000000"
 preserveAspectRatio="xMidYMid meet">
<metadata>
Created by potrace 1.16, written by Peter Selinger 2001-2019
</metadata>
<g transform="translate(0.000000,200.000000) scale(0.100000,-0.100000)"
fill="#000000" stroke="none">
<path d="M1277 1429 c-122 -18 -292 -83 -357 -138 -18 -15 -8 -12 32 10 241
128 527 125 636 -7 37 -45 56 -110 49 -166 l-6 -43 19 40 c12 24 20 62 20 96
0 113 -83 187 -235 209 -78 11 -78 11 -158 -1z"/>
<path d="M1175 1336 c-101 -24 -275 -94 -275 -111 0 -2 31 10 69 25 116 47
198 63 308 58 119 -5 194 -34 239 -93 25 -33 28 -46 29 -106 0 -60 2 -66 15
-54 9 10 16 40 18 83 4 92 -21 135 -102 176 -50 26 -71 31 -149 33 -53 1 -118
-3 -152 -11z"/>
<path d="M323 984 c-21 -32 -12 -48 45 -87 42 -28 53 -51 30 -60 -21 -7 -58
11 -58 29 0 8 -6 14 -12 12 -7 -3 -13 -16 -13 -29 0 -20 7 -26 38 -34 56 -13
92 8 92 55 0 29 -6 37 -45 60 -51 30 -58 53 -18 58 19 2 28 -2 33 -17 8 -27
22 -27 30 -1 10 31 -2 40 -55 40 -42 0 -52 -4 -67 -26z"/>
<path d="M488 998 c16 -16 16 -150 0 -166 -9 -9 -1 -12 38 -12 38 1 45 3 32
11 -19 11 -23 36 -9 58 7 10 15 4 36 -28 24 -36 32 -41 64 -41 29 1 33 3 19
11 -10 5 -32 30 -49 55 l-31 46 38 39 38 39 -33 0 c-21 0 -31 -4 -29 -12 5
-13 -39 -68 -54 -68 -4 0 -8 14 -8 30 0 17 5 30 10 30 6 0 10 5 10 10 0 6 -19
10 -42 10 -33 0 -39 -3 -30 -12z"/>
<path d="M1175 920 c-20 -49 -42 -91 -49 -94 -6 -2 9 -5 34 -5 35 0 41 2 28
10 -29 16 -10 39 32 39 40 0 57 -19 37 -39 -8 -8 1 -11 36 -11 46 0 46 1 29
18 -11 11 -31 53 -47 95 -38 105 -51 103 -100 -13z"/>
<path d="M1358 998 c7 -7 12 -41 12 -83 0 -42 -5 -76 -12 -83 -16 -16 114 -17
143 -2 25 14 26 65 2 79 -15 8 -16 12 -5 22 18 19 15 57 -7 69 -11 5 -48 10
-82 10 -49 0 -60 -3 -51 -12z"/>
<path d="M1565 990 c-26 -29 -13 -66 34 -90 48 -24 58 -38 40 -55 -17 -16 -59
-2 -59 20 0 8 -7 15 -16 15 -11 0 -14 -8 -12 -27 2 -23 10 -30 40 -37 100 -25
136 66 45 116 -46 25 -55 51 -20 56 14 2 26 -4 33 -18 14 -25 30 -17 30 16 0
22 -4 24 -48 24 -36 0 -54 -5 -67 -20z"/>
</g>
</svg>
